# xmcd
#
# Track frame offsets: 
#        183
#        12860
#        26715
#        43605
#        63323
#        81015
#        97198
#        113738
#        132718
#        150070
#        167575
#
# Disc length: 2534 seconds
#
# Revision: 8
# Processed by: cddbd v1.5.2PL0 Copyright (c) Steve Scherf et al.
# Submitted via: ExactAudioCopy v1.0b3
#
DISCID=8209e40b
DTITLE=Kathy Mattea - Time Passes By
DYEAR=1991
DGENRE=Country
TTITLE0=Time Passes By
TTITLE1=Whole Lotta Holes
TTITLE2=What Could Have Been
TTITLE3=Asking Us to Dance
TTITLE4=Summer of My Dreams
TTITLE5=Harley
TTITLE6=Quarter Moon
TTITLE7=I Wear Your Love
TTITLE8=A Few Good Things Remain
TTITLE9=Ready for the storm
TTITLE10=From a Distance
EXTD=YEAR: 1991
EXTT0=
EXTT1=
EXTT2=
EXTT3=
EXTT4=
EXTT5=
EXTT6=
EXTT7=
EXTT8=
EXTT9=
EXTT10=
PLAYORDER=
